{
  "accessors": [
    {
      "bufferView": 2,
      "componentType": 5126,
      "count": 152,
      "max": [
        18.93602180480957,
        -13.671037673950195,
        1595.75244140625
      ],
      "min": [
        -3.8272008895874023,
        -101.34651947021484,
        1109.3988037109375
      ],
      "type": "VEC3"
    },
    {
      "bufferView": 2,
      "byteOffset": 1824,
      "componentType": 5126,
      "count": 152,
      "max": [
        0.7090899348258972,
        0.9958997368812561,
        0.9686097502708435
      ],
      "min": [
        -0.6992173790931702,
        -0.9959002137184143,
        -0.9657806158065796
      ],
      "type": "VEC3"
    },
    {
      "bufferView": 1,
      "componentType": 5126,
      "count": 152,
      "max": [
        1.0000009536743164,
        1.0
      ],
      "min": [
        0.0,
        0.0
      ],
      "type": "VEC2"
    },
    {
      "bufferView": 0,
      "componentType": 5125,
      "count": 384,
      "type": "SCALAR"
    },
    {
      "bufferView": 2,
      "byteOffset": 3648,
      "componentType": 5126,
      "count": 6918,
      "max": [
        199.9649658203125,
        208.09695434570313,
        1650.337158203125
      ],
      "min": [
        -203.8696746826172,
        32.214725494384766,
        983.8856201171875
      ],
      "type": "VEC3"
    },
    {
      "bufferView": 2,
      "byteOffset": 86664,
      "componentType": 5126,
      "count": 6918,
      "max": [
        0.9999147653579712,
        0.9999942183494568,
        0.9995094537734985
      ],
      "min": [
        -0.9999138712882996,
        -0.9999943375587463,
        -0.9999922513961792
      ],
      "type": "VEC3"
    },
    {
      "bufferView": 1,
      "byteOffset": 1216,
      "componentType": 5126,
      "count": 6918,
      "max": [
        0.6077439785003662,
        0.6491140127182007
      ],
      "min": [
        0.04463899880647659,
        -0.06480900198221207
      ],
      "type": "VEC2"
    },
    {
      "bufferView": 0,
      "byteOffset": 1536,
      "componentType": 5125,
      "count": 38976,
      "type": "SCALAR"
    },
    {
      "bufferView": 2,
      "byteOffset": 169680,
      "componentType": 5126,
      "count": 1818,
      "max": [
        26.996057510375977,
        -10.5767822265625,
        1599.1717529296875
      ],
      "min": [
        -25.8170223236084,
        -101.11412048339844,
        1008.3528442382813
      ],
      "type": "VEC3"
    },
    {
      "bufferView": 2,
      "byteOffset": 191496,
      "componentType": 5126,
      "count": 1818,
      "max": [
        0.9999242424964905,
        0.9991961121559143,
        0.998845636844635
      ],
      "min": [
        -0.9999813437461853,
        -0.9987313747406006,
        -0.9998704791069031
      ],
      "type": "VEC3"
    },
    {
      "bufferView": 1,
      "byteOffset": 56560,
      "componentType": 5126,
      "count": 1818,
      "max": [
        -0.272938996553421,
        0.5426089763641357
      ],
      "min": [
        -0.2913930118083954,
        -0.07680000364780426
      ],
      "type": "VEC2"
    },
    {
      "bufferView": 0,
      "byteOffset": 157440,
      "componentType": 5125,
      "count": 8352,
      "type": "SCALAR"
    },
    {
      "bufferView": 2,
      "byteOffset": 213312,
      "componentType": 5126,
      "count": 1404,
      "max": [
        105.69596862792969,
        127.30931854248047,
        1685.7685546875
      ],
      "min": [
        -106.69821166992188,
        -24.632722854614258,
        1568.658935546875
      ],
      "type": "VEC3"
    },
    {
      "bufferView": 2,
      "byteOffset": 230160,
      "componentType": 5126,
      "count": 1404,
      "max": [
        0.99924635887146,
        0.9964067339897156,
        0.9942253828048706
      ],
      "min": [
        -0.9907596707344055,
        -0.9994643330574036,
        -0.9992987513542175
      ],
      "type": "VEC3"
    },
    {
      "bufferView": 1,
      "byteOffset": 71104,
      "componentType": 5126,
      "count": 1404,
      "max": [
        0.39017099142074585,
        -0.01755099929869175
      ],
      "min": [
        -0.10142900049686432,
        -0.1008789986371994
      ],
      "type": "VEC2"
    },
    {
      "bufferView": 0,
      "byteOffset": 190848,
      "componentType": 5125,
      "count": 6684,
      "type": "SCALAR"
    },
    {
      "bufferView": 2,
      "byteOffset": 247008,
      "componentType": 5126,
      "count": 7348,
      "max": [
        202.777587890625,
        86.32170867919922,
        1650.082763671875
      ],
      "min": [
        -204.53726196289063,
        -108.5035171508789,
        985.7894287109375
      ],
      "type": "VEC3"
    },
    {
      "bufferView": 2,
      "byteOffset": 335184,
      "componentType": 5126,
      "count": 7348,
      "max": [
        0.9999956488609314,
        0.9999966621398926,
        0.9968627691268921
      ],
      "min": [
        -0.9999945163726807,
        -0.9999839067459106,
        -0.9999938607215881
      ],
      "type": "VEC3"
    },
    {
      "bufferView": 1,
      "byteOffset": 82336,
      "componentType": 5126,
      "count": 7348,
      "max": [
        0.317425012588501,
        0.6383029818534851
      ],
      "min": [
        -0.19988399744033813,
        -0.07675900310277939
      ],
      "type": "VEC2"
    },
    {
      "bufferView": 0,
      "byteOffset": 217584,
      "componentType": 5125,
      "count": 40152,
      "type": "SCALAR"
    },
    {
      "bufferView": 2,
      "byteOffset": 423360,
      "componentType": 5126,
      "count": 496,
      "max": [
        289.5450134277344,
        107.79853820800781,
        1385.77685546875
      ],
      "min": [
        174.45089721679688,
        6.577466011047363,
        1330.3297119140625
      ],
      "type": "VEC3"
    },
    {
      "bufferView": 2,
      "byteOffset": 429312,
      "componentType": 5126,
      "count": 496,
      "max": [
        0.9953332543373108,
        0.9998309016227722,
        0.9881818890571594
      ],
      "min": [
        -0.9932281374931335,
        -0.9969006180763245,
        -0.9891737699508667
      ],
      "type": "VEC3"
    },
    {
      "bufferView": 1,
      "byteOffset": 141120,
      "componentType": 5126,
      "count": 496,
      "max": [
        0.20447100698947906,
        -0.05355700105428696
      ],
      "min": [
        -0.16102899610996246,
        -0.06487300246953964
      ],
      "type": "VEC2"
    },
    {
      "bufferView": 0,
      "byteOffset": 378192,
      "componentType": 5125,
      "count": 2172,
      "type": "SCALAR"
    },
    {
      "bufferView": 2,
      "byteOffset": 435264,
      "componentType": 5126,
      "count": 496,
      "max": [
        -167.86033630371094,
        106.87203979492188,
        1380.5562744140625
      ],
      "min": [
        -299.4573059082031,
        4.47852087020874,
        1326.779052734375
      ],
      "type": "VEC3"
    },
    {
      "bufferView": 2,
      "byteOffset": 441216,
      "componentType": 5126,
      "count": 496,
      "max": [
        0.9921722412109375,
        0.9928104877471924,
        0.9987496137619019
      ],
      "min": [
        -0.9544322490692139,
        -0.9894784688949585,
        -0.9967394471168518
      ],
      "type": "VEC3"
    },
    {
      "bufferView": 1,
      "byteOffset": 145088,
      "componentType": 5126,
      "count": 496,
      "max": [
        0.20447100698947906,
        -0.05355700105428696
      ],
      "min": [
        -0.16102899610996246,
        -0.06487300246953964
      ],
      "type": "VEC2"
    },
    {
      "bufferView": 0,
      "byteOffset": 386880,
      "componentType": 5125,
      "count": 2172,
      "type": "SCALAR"
    },
    {
      "bufferView": 2,
      "byteOffset": 447168,
      "componentType": 5126,
      "count": 5635,
      "max": [
        17.661861419677734,
        -16.675277709960938,
        1586.705322265625
      ],
      "min": [
        -21.839988708496094,
        -104.42931365966797,
        1106.1412353515625
      ],
      "type": "VEC3"
    },
    {
      "bufferView": 2,
      "byteOffset": 514788,
      "componentType": 5126,
      "count": 5635,
      "max": [
        0.9999760985374451,
        0.9996377825737,
        1.0
      ],
      "min": [
        -1.0,
        -0.9996377825737,
        -1.0
      ],
      "type": "VEC3"
    },
    {
      "bufferView": 1,
      "byteOffset": 149056,
      "componentType": 5126,
      "count": 5635,
      "max": [
        0.9735000133514404,
        0.9702000021934509
      ],
      "min": [
        0.027799999341368675,
        0.03280000016093254
      ],
      "type": "VEC2"
    },
    {
      "bufferView": 0,
      "byteOffset": 395568,
      "componentType": 5125,
      "count": 26166,
      "type": "SCALAR"
    },
    {
      "bufferView": 2,
      "byteOffset": 582408,
      "componentType": 5126,
      "count": 7182,
      "max": [
        13.826811790466309,
        -20.6678524017334,
        1584.3077392578125
      ],
      "min": [
        -18.19416618347168,
        -103.7541732788086,
        1110.064697265625
      ],
      "type": "VEC3"
    },
    {
      "bufferView": 2,
      "byteOffset": 668592,
      "componentType": 5126,
      "count": 7182,
      "max": [
        0.999751627445221,
        0.9994326233863831,
        0.9999396204948425
      ],
      "min": [
        -0.9998064637184143,
        -0.9984084963798523,
        -0.9366852641105652
      ],
      "type": "VEC3"
    },
    {
      "bufferView": 1,
      "byteOffset": 194136,
      "componentType": 5126,
      "count": 7182,
      "max": [
        0.21950000524520874,
        0.2851000130176544
      ],
      "min": [
        0.013799999840557575,
        0.016599999740719795
      ],
      "type": "VEC2"
    },
    {
      "bufferView": 0,
      "byteOffset": 500232,
      "componentType": 5125,
      "count": 36288,
      "type": "SCALAR"
    },
    {
      "bufferView": 2,
      "byteOffset": 754776,
      "componentType": 5126,
      "count": 536,
      "max": [
        136.2163543701172,
        -42.778282165527344,
        1521.3724365234375
      ],
      "min": [
        55.45787048339844,
        -79.7159423828125,
        1397.1722412109375
      ],
      "type": "VEC3"
    },
    {
      "bufferView": 2,
      "byteOffset": 761208,
      "componentType": 5126,
      "count": 536,
      "max": [
        0.9975211024284363,
        0.9990683794021606,
        0.5612829923629761
      ],
      "min": [
        -0.9939537644386292,
        -0.99905925989151,
        -0.9987514615058899
      ],
      "type": "VEC3"
    },
    {
      "bufferView": 1,
      "byteOffset": 251592,
      "componentType": 5126,
      "count": 536,
      "max": [
        -0.17382700741291046,
        0.02568499930202961
      ],
      "min": [
        -0.25482699275016785,
        -0.11936700344085693
      ],
      "type": "VEC2"
    },
    {
      "bufferView": 0,
      "byteOffset": 645384,
      "componentType": 5125,
      "count": 2292,
      "type": "SCALAR"
    },
    {
      "bufferView": 2,
      "byteOffset": 767640,
      "componentType": 5126,
      "count": 1762,
      "max": [
        286.68487548828125,
        153.2309112548828,
        1610.652099609375
      ],
      "min": [
        154.2929229736328,
        -8.221099853515625,
        1339.5787353515625
      ],
      "type": "VEC3"
    },
    {
      "bufferView": 2,
      "byteOffset": 788784,
      "componentType": 5126,
      "count": 1762,
      "max": [
        0.9991292357444763,
        0.9996775984764099,
        0.9968780279159546
      ],
      "min": [
        -0.9997056126594543,
        -0.9997223615646362,
        -0.9970025420188904
      ],
      "type": "VEC3"
    },
    {
      "bufferView": 1,
      "byteOffset": 255880,
      "componentType": 5126,
      "count": 1762,
      "max": [
        0.45237600803375244,
        0.5821790099143982
      ],
      "min": [
        0.03982999920845032,
        0.328235000371933
      ],
      "type": "VEC2"
    },
    {
      "bufferView": 0,
      "byteOffset": 654552,
      "componentType": 5125,
      "count": 9450,
      "type": "SCALAR"
    },
    {
      "bufferView": 2,
      "byteOffset": 809928,
      "componentType": 5126,
      "count": 1750,
      "max": [
        -154.68057250976563,
        145.48521423339844,
        1609.5404052734375
      ],
      "min": [
        -295.77813720703125,
        -10.580327033996582,
        1334.2315673828125
      ],
      "type": "VEC3"
    },
    {
      "bufferView": 2,
      "byteOffset": 830928,
      "componentType": 5126,
      "count": 1750,
      "max": [
        0.999742865562439,
        0.9995328783988953,
        0.9976746439933777
      ],
      "min": [
        -0.9997382164001465,
        -0.9994914531707764,
        -0.9968329071998596
      ],
      "type": "VEC3"
    },
    {
      "bufferView": 1,
      "byteOffset": 269976,
      "componentType": 5126,
      "count": 1750,
      "max": [
        0.4362510144710541,
        0.560267984867096
      ],
      "min": [
        0.023760000243782997,
        0.30652299523353577
      ],
      "type": "VEC2"
    },
    {
      "bufferView": 0,
      "byteOffset": 692352,
      "componentType": 5125,
      "count": 9378,
      "type": "SCALAR"
    }
  ],
  "asset": {
    "extras": {
      "author": "Ikal.Ichwan (https://sketchfab.com/Ikal.Ichwan)",
      "license": "CC-BY-4.0 (http://creativecommons.org/licenses/by/4.0/)",
      "source": "https://sketchfab.com/3d-models/kemeja-lengan-pendek-short-sleeve-shirt-batik-6ed4c3ba94794e819084aa09a836f015",
      "title": "Kemeja Lengan Pendek (short sleeve shirt) Batik"
    },
    "generator": "Sketchfab-16.21.0",
    "version": "2.0"
  },
  "bufferViews": [
    {
      "buffer": 0,
      "byteLength": 729864,
      "name": "floatBufferViews",
      "target": 34963
    },
    {
      "buffer": 0,
      "byteLength": 283976,
      "byteOffset": 729864,
      "byteStride": 8,
      "name": "floatBufferViews",
      "target": 34962
    },
    {
      "buffer": 0,
      "byteLength": 851928,
      "byteOffset": 1013840,
      "byteStride": 12,
      "name": "floatBufferViews",
      "target": 34962
    }
  ],
  "buffers": [
    {
      "byteLength": 1865768,
      "uri": "scene.bin"
    }
  ],
  "images": [
    {
      "uri": "textures/Back_FRONT_2218_baseColor.jpeg"
    },
    {
      "uri": "textures/PT_FABRIC_FRONT_2260_baseColor.png"
    }
  ],
  "materials": [
    {
      "doubleSided": true,
      "emissiveTexture": {
        "index": 0
      },
      "name": "Back_FRONT_2218",
      "pbrMetallicRoughness": {
        "baseColorTexture": {
          "index": 0
        },
        "metallicFactor": 0.0,
        "roughnessFactor": 0.9827475502465659
      }
    },
    {
      "doubleSided": true,
      "emissiveTexture": {
        "index": 0
      },
      "name": "Button_FRONT_2228",
      "pbrMetallicRoughness": {
        "baseColorTexture": {
          "index": 0
        },
        "metallicFactor": 0.0,
        "roughnessFactor": 0.9827475502465659
      }
    },
    {
      "doubleSided": true,
      "emissiveTexture": {
        "index": 0
      },
      "name": "Collar_FRONT_2208",
      "pbrMetallicRoughness": {
        "baseColorTexture": {
          "index": 0
        },
        "metallicFactor": 0.0,
        "roughnessFactor": 0.9827475502465659
      }
    },
    {
      "doubleSided": true,
      "emissiveTexture": {
        "index": 0
      },
      "name": "Front_FRONT_2213",
      "pbrMetallicRoughness": {
        "baseColorTexture": {
          "index": 0
        },
        "metallicFactor": 0.0,
        "roughnessFactor": 0.9827475502465659
      }
    },
    {
      "doubleSided": true,
      "emissiveTexture": {
        "index": 0
      },
      "name": "Lower_Left_FRONT_2203",
      "pbrMetallicRoughness": {
        "baseColorTexture": {
          "index": 0
        },
        "metallicFactor": 0.0,
        "roughnessFactor": 0.9827475502465659
      }
    },
    {
      "doubleSided": true,
      "emissiveTexture": {
        "index": 0
      },
      "name": "Lower_Right_FRONT_2193",
      "pbrMetallicRoughness": {
        "baseColorTexture": {
          "index": 0
        },
        "metallicFactor": 0.0,
        "roughnessFactor": 0.9827475502465659
      }
    },
    {
      "doubleSided": true,
      "name": "Material115145",
      "pbrMetallicRoughness": {
        "metallicFactor": 0.0,
        "roughnessFactor": 0.9827475502465659
      }
    },
    {
      "doubleSided": true,
      "emissiveTexture": {
        "index": 1
      },
      "name": "PT_FABRIC_FRONT_2260",
      "pbrMetallicRoughness": {
        "baseColorTexture": {
          "index": 1
        },
        "metallicFactor": 0.0,
        "roughnessFactor": 0.9827475502465659
      }
    },
    {
      "doubleSided": true,
      "emissiveTexture": {
        "index": 0
      },
      "name": "Pocket_FRONT_2223",
      "pbrMetallicRoughness": {
        "baseColorTexture": {
          "index": 0
        },
        "metallicFactor": 0.0,
        "roughnessFactor": 0.9827475502465659
      }
    },
    {
      "doubleSided": true,
      "emissiveTexture": {
        "index": 0
      },
      "name": "Upper_Left_FRONT_2198",
      "pbrMetallicRoughness": {
        "baseColorTexture": {
          "index": 0
        },
        "metallicFactor": 0.0,
        "roughnessFactor": 0.9827475502465659
      }
    },
    {
      "doubleSided": true,
      "emissiveTexture": {
        "index": 0
      },
      "name": "Upper_Right_FRONT_2188",
      "pbrMetallicRoughness": {
        "baseColorTexture": {
          "index": 0
        },
        "metallicFactor": 0.0,
        "roughnessFactor": 0.9827475502465659
      }
    }
  ],
  "meshes": [
    {
      "name": "Object_0",
      "primitives": [
        {
          "attributes": {
            "NORMAL": 1,
            "POSITION": 0,
            "TEXCOORD_0": 2
          },
          "indices": 3,
          "material": 7,
          "mode": 4
        }
      ]
    },
    {
      "name": "Object_1",
      "primitives": [
        {
          "attributes": {
            "NORMAL": 5,
            "POSITION": 4,
            "TEXCOORD_0": 6
          },
          "indices": 7,
          "material": 0,
          "mode": 4
        }
      ]
    },
    {
      "name": "Object_2",
      "primitives": [
        {
          "attributes": {
            "NORMAL": 9,
            "POSITION": 8,
            "TEXCOORD_0": 10
          },
          "indices": 11,
          "material": 1,
          "mode": 4
        }
      ]
    },
    {
      "name": "Object_3",
      "primitives": [
        {
          "attributes": {
            "NORMAL": 13,
            "POSITION": 12,
            "TEXCOORD_0": 14
          },
          "indices": 15,
          "material": 2,
          "mode": 4
        }
      ]
    },
    {
      "name": "Object_4",
      "primitives": [
        {
          "attributes": {
            "NORMAL": 17,
            "POSITION": 16,
            "TEXCOORD_0": 18
          },
          "indices": 19,
          "material": 3,
          "mode": 4
        }
      ]
    },
    {
      "name": "Object_5",
      "primitives": [
        {
          "attributes": {
            "NORMAL": 21,
            "POSITION": 20,
            "TEXCOORD_0": 22
          },
          "indices": 23,
          "material": 4,
          "mode": 4
        }
      ]
    },
    {
      "name": "Object_6",
      "primitives": [
        {
          "attributes": {
            "NORMAL": 25,
            "POSITION": 24,
            "TEXCOORD_0": 26
          },
          "indices": 27,
          "material": 5,
          "mode": 4
        }
      ]
    },
    {
      "name": "Object_7",
      "primitives": [
        {
          "attributes": {
            "NORMAL": 29,
            "POSITION": 28,
            "TEXCOORD_0": 30
          },
          "indices": 31,
          "material": 6,
          "mode": 4
        }
      ]
    },
    {
      "name": "Object_8",
      "primitives": [
        {
          "attributes": {
            "NORMAL": 33,
            "POSITION": 32,
            "TEXCOORD_0": 34
          },
          "indices": 35,
          "material": 6,
          "mode": 4
        }
      ]
    },
    {
      "name": "Object_9",
      "primitives": [
        {
          "attributes": {
            "NORMAL": 37,
            "POSITION": 36,
            "TEXCOORD_0": 38
          },
          "indices": 39,
          "material": 8,
          "mode": 4
        }
      ]
    },
    {
      "name": "Object_10",
      "primitives": [
        {
          "attributes": {
            "NORMAL": 41,
            "POSITION": 40,
            "TEXCOORD_0": 42
          },
          "indices": 43,
          "material": 9,
          "mode": 4
        }
      ]
    },
    {
      "name": "Object_11",
      "primitives": [
        {
          "attributes": {
            "NORMAL": 45,
            "POSITION": 44,
            "TEXCOORD_0": 46
          },
          "indices": 47,
          "material": 10,
          "mode": 4
        }
      ]
    }
  ],
  "nodes": [
    {
      "children": [
        1
      ],
      "matrix": [
        1.0,
        0.0,
        0.0,
        0.0,
        0.0,
        2.220446049250313e-16,
        -1.0,
        0.0,
        0.0,
        1.0,
        2.220446049250313e-16,
        0.0,
        0.0,
        0.0,
        0.0,
        1.0
      ],
      "name": "Sketchfab_model"
    },
    {
      "children": [
        2,
        3,
        4,
        5,
        6,
        7,
        8,
        9,
        10,
        11,
        12,
        13
      ],
      "name": "Shirt Short Sleeve.obj.cleaner.materialmerger.gles"
    },
    {
      "mesh": 0,
      "name": "Object_2"
    },
    {
      "mesh": 1,
      "name": "Object_3"
    },
    {
      "mesh": 2,
      "name": "Object_4"
    },
    {
      "mesh": 3,
      "name": "Object_5"
    },
    {
      "mesh": 4,
      "name": "Object_6"
    },
    {
      "mesh": 5,
      "name": "Object_7"
    },
    {
      "mesh": 6,
      "name": "Object_8"
    },
    {
      "mesh": 7,
      "name": "Object_9"
    },
    {
      "mesh": 8,
      "name": "Object_10"
    },
    {
      "mesh": 9,
      "name": "Object_11"
    },
    {
      "mesh": 10,
      "name": "Object_12"
    },
    {
      "mesh": 11,
      "name": "Object_13"
    }
  ],
  "samplers": [
    {
      "magFilter": 9729,
      "minFilter": 9987,
      "wrapS": 10497,
      "wrapT": 10497
    }
  ],
  "scene": 0,
  "scenes": [
    {
      "name": "Sketchfab_Scene",
      "nodes": [
        0
      ]
    }
  ],
  "textures": [
    {
      "sampler": 0,
      "source": 0
    },
    {
      "sampler": 0,
      "source": 1
    }
  ]
}
